<?xml version="1.0" standalone="no"?>
<!DOCTYPE svg PUBLIC "-//W3C//DTD SVG 20010904//EN"
 "http://www.w3.org/TR/2001/REC-SVG-20010904/DTD/svg10.dtd">
<svg version="1.0" xmlns="http://www.w3.org/2000/svg"
 width="300.000000pt" height="300.000000pt" viewBox="0 0 300.000000 300.000000"
 preserveAspectRatio="xMidYMid meet">
<metadata>
Created by potrace 1.16, written by Peter Selinger 2001-2019
</metadata>
<g transform="translate(0.000000,300.000000) scale(0.100000,-0.100000)"
fill="#000000" stroke="none">
<path d="M1546 2965 c-21 -9 -38 -10 -58 -3 -61 22 -341 -115 -399 -195 -40
-54 -80 -142 -118 -259 -39 -122 -56 -160 -66 -151 -4 5 -5 3 -2 -3 3 -6 -6
-39 -20 -74 -38 -96 -63 -231 -56 -306 5 -52 2 -68 -13 -91 -10 -15 -17 -32
-16 -37 2 -5 -1 -12 -5 -15 -21 -17 -76 -83 -63 -77 10 5 10 3 -2 -6 -19 -16
-68 -105 -68 -124 0 -7 -6 -19 -12 -26 -7 -8 -18 -22 -23 -32 -6 -10 -14 -18
-18 -17 -4 0 -15 -7 -25 -16 -10 -10 -35 -33 -55 -51 -43 -38 -49 -79 -18
-126 22 -32 20 -37 -40 -116 -49 -65 -139 -393 -139 -508 0 -21 13 -76 29
-122 17 -46 29 -86 27 -87 -1 -2 -24 0 -50 3 -38 6 -47 10 -43 24 4 15 -7 18
-92 23 -52 3 -98 4 -100 1 -12 -11 15 -16 94 -15 74 1 86 -1 81 -14 -3 -8 0
-15 6 -15 8 0 6 -6 -4 -16 -22 -22 -127 -27 -114 -5 2 3 -16 7 -40 9 -27 2
-44 -1 -44 -8 0 -6 -5 -8 -10 -5 -21 13 -9 25 25 25 47 0 44 16 -4 24 -37 6
-40 9 -46 47 -4 22 -4 43 -1 46 3 4 6 1 6 -5 0 -6 7 -9 15 -7 50 16 47 13 31
37 -20 28 -20 38 -1 38 8 0 23 4 33 9 76 38 107 51 137 57 38 7 38 24 0 24
-36 0 -176 -76 -207 -113 l-28 -31 -1 44 c0 25 -7 68 -14 95 -11 43 -13 -8
-14 -372 l-1 -423 1211 0 1212 0 -5 38 c-5 37 -5 37 31 37 32 0 37 4 45 32 7
21 17 33 30 35 25 4 46 44 54 101 3 23 19 61 36 85 30 42 31 47 34 165 2 85
-3 156 -17 241 -11 67 -25 162 -32 211 -6 50 -15 99 -20 110 -5 11 -15 41 -23
68 -13 44 -13 48 6 61 14 10 16 15 6 18 -7 3 -13 22 -13 50 -1 26 -6 52 -11
60 -12 14 -61 118 -89 185 -11 25 -52 78 -101 128 -109 111 -114 120 -105 173
12 63 -5 125 -57 200 -25 37 -62 92 -84 123 -28 42 -42 76 -53 134 -8 43 -17
80 -20 83 -3 3 0 11 5 18 8 8 2 25 -20 57 -16 25 -30 48 -30 53 0 4 -24 58
-54 119 -63 129 -124 215 -195 276 -28 24 -51 49 -51 54 0 10 -92 66 -106 64
-5 0 -22 -6 -38 -14z m37 -362 c30 -21 38 -32 34 -50 -2 -13 -1 -23 4 -23 4 0
10 -13 14 -28 3 -15 16 -39 28 -52 46 -50 42 -57 -32 -64 -55 -6 -72 -12 -90
-32 -12 -14 -18 -30 -14 -37 4 -7 8 -28 8 -47 2 -74 4 -80 26 -80 11 0 17 5
14 10 -8 13 -5 13 45 -5 50 -18 113 -19 142 -4 20 11 20 9 16 -58 -2 -48 -9
-75 -20 -86 -22 -23 -45 -21 -58 2 -13 26 -124 111 -143 111 -13 0 -14 -6 -5
-36 6 -25 6 -40 -1 -47 -13 -13 -74 -11 -100 3 -11 5 -31 10 -45 10 -16 0 -26
6 -26 15 0 8 7 15 15 15 8 0 15 -4 15 -10 0 -5 5 -10 11 -10 5 0 7 5 4 10 -3
6 -1 10 6 10 7 0 10 13 7 35 -2 19 -1 35 2 35 9 0 30 95 30 135 0 43 -32 64
-121 78 -38 6 -69 15 -69 20 0 5 7 6 16 3 8 -3 12 -2 9 4 -3 6 1 20 9 32 9 12
16 19 16 16 0 -4 12 4 26 17 14 13 23 29 19 35 -13 20 16 70 44 76 14 3 33 9
41 14 30 18 83 10 123 -17z m-185 -411 c6 -19 -73 -91 -124 -113 -40 -17 -73
-17 -75 0 -5 34 -8 108 -5 116 6 16 198 13 204 -3z m192 -408 c0 -19 -19 -56
-34 -66 -6 -4 -41 -8 -77 -8 -57 0 -70 4 -93 25 -44 40 -30 49 80 56 54 3 105
6 112 7 6 1 12 -5 12 -14z"/>
</g>
</svg>
